<svg width="36" height="36" viewBox="0 0 36 36" fill="none" xmlns="http://www.w3.org/2000/svg">
<path d="M36 0H0V36H36V0Z" fill="white" fill-opacity="0.01"/>
<path fill-rule="evenodd" clip-rule="evenodd" d="M18 33C24.2132 33 29.25 27.9632 29.25 21.75C29.25 11.25 18 3 18 3C18 3 6.75 11.25 6.75 21.75C6.75 27.9632 11.7868 33 18 33Z" stroke="#333333" stroke-width="3" stroke-linecap="round" stroke-linejoin="round"/>
<path d="M6.75 21.75C6.75 27.9632 11.7868 33 18 33C24.2132 33 29.25 27.9632 29.25 21.75C29.25 21.75 22.5 24 18 21.75C13.5 19.5 6.75 21.75 6.75 21.75Z" stroke="#333333" stroke-width="3" stroke-linejoin="round"/>
</svg>
