<svg width="36" height="36" viewBox="0 0 36 36" fill="none" xmlns="http://www.w3.org/2000/svg">
<path d="M36 0H0V36H36V0Z" fill="white" fill-opacity="0.01"/>
<path d="M22.7229 14.084C22.7229 14.084 20.3009 20.9106 19.15 22.1025C17.9991 23.2944 16.0998 23.3275 14.908 22.1766C13.7161 21.0256 13.683 19.1264 14.8339 17.9346C15.9849 16.7427 22.7229 14.084 22.7229 14.084Z" stroke="#333333" stroke-width="3" stroke-linejoin="round"/>
<path d="M29.1369 29.1369C31.9871 26.2868 33.75 22.3492 33.75 18C33.75 9.3015 26.6985 2.25 18 2.25C9.3015 2.25 2.25 9.3015 2.25 18C2.25 22.3492 4.01288 26.2868 6.86307 29.1369" stroke="#333333" stroke-width="3" stroke-linecap="round" stroke-linejoin="round"/>
<path d="M18 3V6" stroke="#333333" stroke-width="3" stroke-linecap="round" stroke-linejoin="round"/>
<path d="M29.1341 8.35645L26.8026 10.2443" stroke="#333333" stroke-width="3" stroke-linecap="round" stroke-linejoin="round"/>
<path d="M31.8918 20.4239L28.9688 19.749" stroke="#333333" stroke-width="3" stroke-linecap="round" stroke-linejoin="round"/>
<path d="M4.10815 20.4239L7.03126 19.749" stroke="#333333" stroke-width="3" stroke-linecap="round" stroke-linejoin="round"/>
<path d="M6.86597 8.35645L9.19739 10.2443" stroke="#333333" stroke-width="3" stroke-linecap="round" stroke-linejoin="round"/>
</svg>
