<svg width="36" height="36" viewBox="0 0 36 36" fill="none" xmlns="http://www.w3.org/2000/svg">
<path d="M36 0H0V36H36V0Z" fill="white" fill-opacity="0.01"/>
<path d="M18 2.25V4.6125" stroke="#333333" stroke-width="3" stroke-linecap="round" stroke-linejoin="round"/>
<path fill-rule="evenodd" clip-rule="evenodd" d="M29.1369 6.86328L27.4664 8.53379L29.1369 6.86328Z" fill="#333333"/>
<path d="M29.1369 6.86328L27.4664 8.53379" stroke="#333333" stroke-width="3" stroke-linecap="round" stroke-linejoin="round"/>
<path d="M33.7501 18H31.3876" stroke="#333333" stroke-width="3" stroke-linecap="round" stroke-linejoin="round"/>
<path fill-rule="evenodd" clip-rule="evenodd" d="M29.1369 29.1363L27.4664 27.4658L29.1369 29.1363Z" fill="#333333"/>
<path d="M29.1369 29.1363L27.4664 27.4658" stroke="#333333" stroke-width="3" stroke-linecap="round" stroke-linejoin="round"/>
<path d="M18 33.7502V31.3877" stroke="#333333" stroke-width="3" stroke-linecap="round" stroke-linejoin="round"/>
<path fill-rule="evenodd" clip-rule="evenodd" d="M6.86316 29.1363L8.53367 27.4658L6.86316 29.1363Z" fill="#333333"/>
<path d="M6.86316 29.1363L8.53367 27.4658" stroke="#333333" stroke-width="3" stroke-linecap="round" stroke-linejoin="round"/>
<path d="M2.25 18H4.6125" stroke="#333333" stroke-width="3" stroke-linecap="round" stroke-linejoin="round"/>
<path fill-rule="evenodd" clip-rule="evenodd" d="M6.86316 6.86328L8.53367 8.53379L6.86316 6.86328Z" fill="#333333"/>
<path d="M6.86316 6.86328L8.53367 8.53379" stroke="#333333" stroke-width="3" stroke-linecap="round" stroke-linejoin="round"/>
<path d="M18 27C22.9705 27 27 22.9705 27 18C27 13.0295 22.9705 9 18 9C13.0295 9 9 13.0295 9 18C9 22.9705 13.0295 27 18 27Z" stroke="#333333" stroke-width="3" stroke-linejoin="round"/>
</svg>
