<svg width="36" height="36" viewBox="0 0 36 36" fill="none" xmlns="http://www.w3.org/2000/svg">
<path d="M3 18H5.25" stroke="#333333" stroke-width="3" stroke-linecap="round" stroke-linejoin="round"/>
<path d="M7.5 7.5L9 9" stroke="#333333" stroke-width="3" stroke-linecap="round" stroke-linejoin="round"/>
<path d="M18 3V5.25" stroke="#333333" stroke-width="3" stroke-linecap="round" stroke-linejoin="round"/>
<path d="M10.5 18C10.5 13.8582 13.8582 10.5 18 10.5C22.1418 10.5 25.5 13.8582 25.5 18C25.5 20.5255 24.2518 22.7593 22.3387 24.1183" stroke="#333333" stroke-width="3" stroke-linecap="round" stroke-linejoin="round"/>
<path d="M28.5 7.5L27 9" stroke="#333333" stroke-width="3" stroke-linecap="round" stroke-linejoin="round"/>
<path d="M33 18H30.75" stroke="#333333" stroke-width="3" stroke-linecap="round" stroke-linejoin="round"/>
<path d="M28.486 28.4865L27.271 27.2715" stroke="#333333" stroke-width="3" stroke-linecap="round" stroke-linejoin="round"/>
<path d="M17.625 21C15.375 21 10.5 21.15 10.5 23.25C10.5 25.35 13.9544 25.3431 15.7499 25.5C17.25 25.631 19.8468 26.7659 19.5 28.5C18.7499 32.25 6.74991 31.5 3.75 31.5" stroke="#333333" stroke-width="3" stroke-linecap="round" stroke-linejoin="round"/>
</svg>
