<svg width="36" height="36" viewBox="0 0 36 36" fill="none" xmlns="http://www.w3.org/2000/svg">
<path d="M3 14.9138C3 9.16245 7.5789 4.5 13.2273 4.5C17.9501 4.5 21.9252 7.75965 23.1011 12.19C24.0265 11.7119 25.0732 11.4425 26.1818 11.4425C29.9474 11.4425 33 14.5508 33 18.3851C33 21.1171 31.4503 23.4805 29.1971 24.6136C29.0094 24.708 28.8005 24.75 28.5905 24.75H11.25" stroke="#333333" stroke-width="3" stroke-linecap="round" stroke-linejoin="round"/>
<path d="M11.25 24.75H9C7.34314 24.75 6 26.0932 6 27.75C6 29.4068 7.34314 30.75 9 30.75H11.25" stroke="#333333" stroke-width="3" stroke-linecap="round" stroke-linejoin="round"/>
<path d="M16.5 13.5H14.25C12.5932 13.5 11.25 14.8432 11.25 16.5C11.25 18.1568 12.5932 19.5 14.25 19.5H16.5" stroke="#333333" stroke-width="3" stroke-linecap="round" stroke-linejoin="round"/>
<path d="M14.25 19.5H24" stroke="#333333" stroke-width="3" stroke-linecap="round" stroke-linejoin="round"/>
</svg>
